<mxfile host="app.diagrams.net" modified="2022-01-10T08:33:12.751Z" agent="5.0 (Windows NT 10.0; Win64; x64) AppleWebKit/537.36 (KHTML, like Gecko) Chrome/95.0.4638.54 Safari/537.36" etag="XYsiNSv6V05qpK1vmimk" version="16.2.2" type="github">
  <diagram id="0HsWjf896FfIcGfxjxrg" name="第 1 页">
    <mxGraphModel dx="3197" dy="1287" grid="1" gridSize="10" guides="1" tooltips="1" connect="1" arrows="1" fold="1" page="1" pageScale="1" pageWidth="827" pageHeight="1169" math="0" shadow="0">
      <root>
        <mxCell id="0" />
        <mxCell id="1" parent="0" />
        <mxCell id="8vAzkIE3bh4ljM_OfiF3-1" value="&lt;h1&gt;频道呼出的状态迁移&lt;/h1&gt;&lt;p style=&quot;font-size: 20px&quot;&gt;&lt;br&gt;&lt;/p&gt;&lt;p style=&quot;font-size: 20px&quot;&gt;&lt;br&gt;&lt;/p&gt;&lt;p&gt;&lt;font color=&quot;#ff8000&quot;&gt;&lt;br&gt;&lt;/font&gt;&lt;/p&gt;&lt;p&gt;&lt;font color=&quot;#ff8000&quot;&gt;&lt;br&gt;&lt;/font&gt;&lt;/p&gt;&lt;p&gt;&lt;br&gt;&lt;/p&gt;" style="text;html=1;strokeColor=none;fillColor=none;spacing=5;spacingTop=-20;whiteSpace=wrap;overflow=hidden;rounded=0;" parent="1" vertex="1">
          <mxGeometry x="310" y="220" width="250" height="60" as="geometry" />
        </mxCell>
        <mxCell id="8vAzkIE3bh4ljM_OfiF3-29" value="&lt;h1 style=&quot;font-size: 28px&quot;&gt;&lt;font style=&quot;font-size: 28px&quot;&gt;&lt;br&gt;&lt;/font&gt;&lt;/h1&gt;&lt;p style=&quot;font-size: 28px&quot;&gt;&lt;font style=&quot;font-size: 28px&quot;&gt;&lt;b&gt;&lt;i&gt;legend:&lt;/i&gt;&lt;/b&gt;&lt;/font&gt;&lt;/p&gt;&lt;p style=&quot;font-size: 28px&quot;&gt;&lt;font color=&quot;#ff00ff&quot; style=&quot;font-size: 28px&quot;&gt;&lt;b&gt;xxxx Function call by APP&lt;/b&gt;&lt;/font&gt;&lt;/p&gt;&lt;p style=&quot;font-size: 28px&quot;&gt;&lt;font style=&quot;font-size: 28px&quot;&gt;&lt;b style=&quot;color: rgb(255 , 128 , 0)&quot;&gt;xxxx Event triggered&amp;nbsp;by UFO&lt;/b&gt;&lt;font color=&quot;#ff00ff&quot; style=&quot;font-size: 28px&quot;&gt;&lt;b&gt;&lt;br&gt;&lt;/b&gt;&lt;/font&gt;&lt;/font&gt;&lt;/p&gt;&lt;p style=&quot;font-size: 28px&quot;&gt;&lt;b&gt;&lt;font style=&quot;font-size: 28px&quot;&gt;&lt;font color=&quot;#000099&quot; style=&quot;font-size: 28px&quot;&gt;xxxx Event triggered&amp;nbsp;by Internal&lt;/font&gt;&lt;font color=&quot;#ff00ff&quot; style=&quot;font-size: 28px&quot;&gt;&lt;br&gt;&lt;/font&gt;&lt;/font&gt;&lt;/b&gt;&lt;/p&gt;&lt;p style=&quot;font-size: 28px&quot;&gt;&lt;font color=&quot;#336600&quot; style=&quot;font-size: 28px&quot;&gt;&lt;b&gt;xxxx Msg Rcv From External&lt;/b&gt;&lt;/font&gt;&lt;/p&gt;&lt;p style=&quot;font-size: 28px&quot;&gt;&lt;font style=&quot;font-size: 28px&quot;&gt;&lt;br&gt;&lt;/font&gt;&lt;/p&gt;&lt;p style=&quot;font-size: 28px&quot;&gt;&lt;font color=&quot;#ff8000&quot; style=&quot;font-size: 28px&quot;&gt;&lt;br&gt;&lt;/font&gt;&lt;/p&gt;&lt;p style=&quot;font-size: 28px&quot;&gt;&lt;font color=&quot;#ff8000&quot; style=&quot;font-size: 28px&quot;&gt;&lt;br&gt;&lt;/font&gt;&lt;/p&gt;&lt;p style=&quot;font-size: 28px&quot;&gt;&lt;br&gt;&lt;/p&gt;" style="text;html=1;strokeColor=none;fillColor=none;spacing=5;spacingTop=-20;whiteSpace=wrap;overflow=hidden;rounded=0;" parent="1" vertex="1">
          <mxGeometry x="-500" y="20" width="661" height="560" as="geometry" />
        </mxCell>
        <mxCell id="8vAzkIE3bh4ljM_OfiF3-30" value="&lt;font color=&quot;#66b2ff&quot; size=&quot;1&quot;&gt;&lt;b style=&quot;font-size: 28px&quot;&gt;Ofen used channel status&lt;/b&gt;&lt;/font&gt;" style="text;html=1;strokeColor=none;fillColor=none;align=center;verticalAlign=middle;whiteSpace=wrap;rounded=0;fontColor=#FF8000;strokeWidth=5;" parent="1" vertex="1">
          <mxGeometry x="-450" y="420" width="400" height="30" as="geometry" />
        </mxCell>
        <mxCell id="8vAzkIE3bh4ljM_OfiF3-31" value="" style="ellipse;whiteSpace=wrap;html=1;fillColor=#dae8fc;strokeColor=#6c8ebf;strokeWidth=1;" parent="1" vertex="1">
          <mxGeometry x="-490" y="420" width="50" height="30" as="geometry" />
        </mxCell>
        <mxCell id="8vAzkIE3bh4ljM_OfiF3-45" style="edgeStyle=orthogonalEdgeStyle;rounded=0;orthogonalLoop=1;jettySize=auto;html=1;entryX=0;entryY=0.375;entryDx=0;entryDy=0;curved=1;entryPerimeter=0;" parent="1" source="8vAzkIE3bh4ljM_OfiF3-34" target="SyPDCeyNVecFSC98UoBS-26" edge="1">
          <mxGeometry relative="1" as="geometry">
            <mxPoint x="120.00000000000637" y="850" as="targetPoint" />
          </mxGeometry>
        </mxCell>
        <mxCell id="8vAzkIE3bh4ljM_OfiF3-61" style="rounded=0;orthogonalLoop=1;jettySize=auto;html=1;exitX=0.5;exitY=1;exitDx=0;exitDy=0;entryX=0;entryY=0;entryDx=0;entryDy=0;" parent="1" source="8vAzkIE3bh4ljM_OfiF3-34" target="8vAzkIE3bh4ljM_OfiF3-37" edge="1">
          <mxGeometry relative="1" as="geometry" />
        </mxCell>
        <mxCell id="SyPDCeyNVecFSC98UoBS-15" style="edgeStyle=orthogonalEdgeStyle;curved=1;rounded=0;orthogonalLoop=1;jettySize=auto;html=1;entryX=0;entryY=0.5;entryDx=0;entryDy=0;fontFamily=Helvetica;fontSize=12;fontColor=default;" edge="1" parent="1" source="8vAzkIE3bh4ljM_OfiF3-34" target="8vAzkIE3bh4ljM_OfiF3-35">
          <mxGeometry relative="1" as="geometry">
            <Array as="points">
              <mxPoint x="-540" y="1900" />
              <mxPoint x="-540" y="2940" />
            </Array>
          </mxGeometry>
        </mxCell>
        <mxCell id="8vAzkIE3bh4ljM_OfiF3-34" value="&lt;font style=&quot;font-size: 28px&quot;&gt;HOLDING&lt;/font&gt;" style="ellipse;whiteSpace=wrap;html=1;fillColor=#60a917;strokeColor=#2D7600;fontColor=#ffffff;" parent="1" vertex="1">
          <mxGeometry x="-200" y="1860" width="280" height="80" as="geometry" />
        </mxCell>
        <mxCell id="SyPDCeyNVecFSC98UoBS-13" style="edgeStyle=orthogonalEdgeStyle;curved=1;rounded=0;orthogonalLoop=1;jettySize=auto;html=1;fontFamily=Helvetica;fontSize=12;fontColor=default;" edge="1" parent="1" source="8vAzkIE3bh4ljM_OfiF3-35">
          <mxGeometry relative="1" as="geometry">
            <mxPoint x="440.00000000000045" y="3300" as="targetPoint" />
          </mxGeometry>
        </mxCell>
        <mxCell id="8vAzkIE3bh4ljM_OfiF3-35" value="&lt;font style=&quot;font-size: 28px&quot;&gt;HANGUP&lt;/font&gt;" style="ellipse;whiteSpace=wrap;html=1;fillColor=#60a917;strokeColor=#2D7600;fontColor=#ffffff;" parent="1" vertex="1">
          <mxGeometry x="310" y="2900" width="260" height="80" as="geometry" />
        </mxCell>
        <mxCell id="8vAzkIE3bh4ljM_OfiF3-47" style="edgeStyle=orthogonalEdgeStyle;rounded=0;orthogonalLoop=1;jettySize=auto;html=1;entryX=0.5;entryY=0;entryDx=0;entryDy=0;" parent="1" source="8vAzkIE3bh4ljM_OfiF3-36" target="8vAzkIE3bh4ljM_OfiF3-37" edge="1">
          <mxGeometry relative="1" as="geometry" />
        </mxCell>
        <mxCell id="SyPDCeyNVecFSC98UoBS-12" style="edgeStyle=orthogonalEdgeStyle;curved=1;rounded=0;orthogonalLoop=1;jettySize=auto;html=1;fontFamily=Helvetica;fontSize=12;fontColor=default;" edge="1" parent="1" source="8vAzkIE3bh4ljM_OfiF3-36" target="8vAzkIE3bh4ljM_OfiF3-35">
          <mxGeometry relative="1" as="geometry">
            <mxPoint x="580.0000000000005" y="2950" as="targetPoint" />
            <Array as="points">
              <mxPoint x="850" y="2200" />
              <mxPoint x="850" y="2950" />
            </Array>
          </mxGeometry>
        </mxCell>
        <mxCell id="8vAzkIE3bh4ljM_OfiF3-36" value="&lt;font style=&quot;font-size: 28px&quot;&gt;RINGBACK&lt;/font&gt;" style="ellipse;whiteSpace=wrap;html=1;fillColor=#60a917;strokeColor=#2D7600;fontColor=#ffffff;" parent="1" vertex="1">
          <mxGeometry x="300" y="2160" width="280" height="80" as="geometry" />
        </mxCell>
        <mxCell id="SyPDCeyNVecFSC98UoBS-1" style="edgeStyle=orthogonalEdgeStyle;rounded=0;orthogonalLoop=1;jettySize=auto;html=1;entryX=0;entryY=0.5;entryDx=0;entryDy=0;fontFamily=Helvetica;fontSize=12;fontColor=default;" edge="1" parent="1" source="8vAzkIE3bh4ljM_OfiF3-37" target="8vAzkIE3bh4ljM_OfiF3-34">
          <mxGeometry relative="1" as="geometry" />
        </mxCell>
        <mxCell id="SyPDCeyNVecFSC98UoBS-11" style="edgeStyle=orthogonalEdgeStyle;rounded=0;orthogonalLoop=1;jettySize=auto;html=1;entryX=1;entryY=0.5;entryDx=0;entryDy=0;fontFamily=Helvetica;fontSize=12;fontColor=default;curved=1;exitX=1;exitY=0.5;exitDx=0;exitDy=0;" edge="1" parent="1" source="8vAzkIE3bh4ljM_OfiF3-37" target="8vAzkIE3bh4ljM_OfiF3-35">
          <mxGeometry relative="1" as="geometry">
            <Array as="points">
              <mxPoint x="620" y="2560" />
              <mxPoint x="620" y="2940" />
            </Array>
          </mxGeometry>
        </mxCell>
        <mxCell id="8vAzkIE3bh4ljM_OfiF3-37" value="&lt;font style=&quot;font-size: 28px&quot;&gt;TALKING&lt;/font&gt;" style="ellipse;whiteSpace=wrap;html=1;fillColor=#60a917;strokeColor=#2D7600;fontColor=#ffffff;" parent="1" vertex="1">
          <mxGeometry x="305" y="2520" width="270" height="80" as="geometry" />
        </mxCell>
        <mxCell id="8vAzkIE3bh4ljM_OfiF3-46" value="&lt;div style=&quot;font-family: &amp;#34;consolas&amp;#34; , &amp;#34;courier new&amp;#34; , monospace ; line-height: 19px&quot;&gt;&lt;div style=&quot;font-family: &amp;#34;consolas&amp;#34; , &amp;#34;courier new&amp;#34; , monospace ; line-height: 19px&quot;&gt;&lt;h1 class=&quot;topictitle1&quot;&gt;&lt;font color=&quot;#ff00ff&quot;&gt;&lt;span style=&quot;font-size: 28px&quot;&gt;Call&lt;/span&gt;&lt;/font&gt;&lt;/h1&gt;&lt;div style=&quot;font-size: 28px&quot;&gt;&lt;font style=&quot;font-size: 28px&quot; color=&quot;#ff8000&quot;&gt;OnCallResult&lt;/font&gt;&lt;/div&gt;&lt;div style=&quot;font-size: 28px&quot;&gt;&lt;br&gt;&lt;/div&gt;&lt;/div&gt;&lt;/div&gt;" style="edgeLabel;html=1;align=center;verticalAlign=middle;resizable=0;points=[];fontSize=15;fontColor=#CC00CC;labelBackgroundColor=none;fontStyle=1;" parent="1" vertex="1" connectable="0">
          <mxGeometry x="100" y="1460" as="geometry">
            <mxPoint x="9" y="42" as="offset" />
          </mxGeometry>
        </mxCell>
        <mxCell id="8vAzkIE3bh4ljM_OfiF3-48" value="&lt;div style=&quot;font-family: &amp;#34;consolas&amp;#34; , &amp;#34;courier new&amp;#34; , monospace ; line-height: 19px&quot;&gt;&lt;div style=&quot;font-family: &amp;#34;consolas&amp;#34; , &amp;#34;courier new&amp;#34; , monospace ; line-height: 19px&quot;&gt;&lt;font style=&quot;font-size: 28px&quot;&gt;CHANNEL_ANSWER&lt;/font&gt;&lt;/div&gt;&lt;div style=&quot;font-family: &amp;#34;consolas&amp;#34; , &amp;#34;courier new&amp;#34; , monospace ; line-height: 19px&quot;&gt;&lt;font style=&quot;font-size: 28px&quot;&gt;&lt;br&gt;&lt;/font&gt;&lt;/div&gt;&lt;div style=&quot;font-family: &amp;#34;consolas&amp;#34; , &amp;#34;courier new&amp;#34; , monospace ; line-height: 19px&quot;&gt;&lt;font style=&quot;font-size: 28px&quot; color=&quot;#ff8000&quot;&gt;OnAnsweredEvent&lt;/font&gt;&lt;/div&gt;&lt;div style=&quot;font-family: &amp;#34;consolas&amp;#34; , &amp;#34;courier new&amp;#34; , monospace ; line-height: 19px&quot;&gt;&lt;font style=&quot;font-size: 28px&quot;&gt;&lt;br&gt;&lt;/font&gt;&lt;/div&gt;&lt;/div&gt;" style="edgeLabel;html=1;align=center;verticalAlign=middle;resizable=0;points=[];fontSize=15;fontColor=#000099;labelBackgroundColor=none;fontStyle=1;" parent="1" vertex="1" connectable="0">
          <mxGeometry x="434" y="2390" as="geometry" />
        </mxCell>
        <mxCell id="8vAzkIE3bh4ljM_OfiF3-51" value="&lt;div style=&quot;font-family: &amp;#34;consolas&amp;#34; , &amp;#34;courier new&amp;#34; , monospace ; line-height: 19px ; font-size: 28px&quot;&gt;&lt;div style=&quot;font-family: &amp;#34;consolas&amp;#34; , &amp;#34;courier new&amp;#34; , monospace ; line-height: 19px&quot;&gt;&lt;h1 class=&quot;topictitle1&quot;&gt;&lt;font color=&quot;#ff00ff&quot; style=&quot;font-size: 28px&quot;&gt;HangUp&lt;/font&gt;&lt;/h1&gt;&lt;div&gt;&lt;font style=&quot;font-size: 28px&quot; color=&quot;#ff8000&quot;&gt;OnHangUpResult&lt;/font&gt;&lt;/div&gt;&lt;/div&gt;&lt;/div&gt;" style="edgeLabel;html=1;align=center;verticalAlign=middle;resizable=0;points=[];fontSize=15;fontColor=#CC00CC;labelBackgroundColor=none;fontStyle=1;" parent="1" vertex="1" connectable="0">
          <mxGeometry x="830" y="2350" as="geometry" />
        </mxCell>
        <mxCell id="8vAzkIE3bh4ljM_OfiF3-54" value="&lt;div style=&quot;font-family: &amp;#34;consolas&amp;#34; , &amp;#34;courier new&amp;#34; , monospace ; line-height: 19px ; font-size: 28px&quot;&gt;&lt;div style=&quot;font-family: &amp;#34;consolas&amp;#34; , &amp;#34;courier new&amp;#34; , monospace ; line-height: 19px&quot;&gt;&lt;h1 class=&quot;topictitle1&quot;&gt;&lt;font color=&quot;#ff00ff&quot; style=&quot;font-size: 28px&quot;&gt;HangUp&lt;/font&gt;&lt;/h1&gt;&lt;div&gt;&lt;font style=&quot;font-size: 28px&quot; color=&quot;#ff8000&quot;&gt;OnHangUpResult&lt;/font&gt;&lt;/div&gt;&lt;/div&gt;&lt;/div&gt;" style="edgeLabel;html=1;align=center;verticalAlign=middle;resizable=0;points=[];fontSize=15;fontColor=#CC00CC;labelBackgroundColor=none;fontStyle=1;" parent="1" vertex="1" connectable="0">
          <mxGeometry x="610" y="2640" as="geometry" />
        </mxCell>
        <mxCell id="8vAzkIE3bh4ljM_OfiF3-57" value="&lt;div style=&quot;font-family: &amp;#34;consolas&amp;#34; , &amp;#34;courier new&amp;#34; , monospace ; font-size: 28px ; line-height: 19px&quot;&gt;&lt;div style=&quot;font-family: &amp;#34;consolas&amp;#34; , &amp;#34;courier new&amp;#34; , monospace ; line-height: 19px ; font-size: 28px&quot;&gt;&lt;h1 class=&quot;topictitle1&quot; style=&quot;font-size: 28px&quot;&gt;&lt;font color=&quot;#ff00ff&quot; style=&quot;font-size: 28px&quot;&gt;UnHold&lt;/font&gt;&lt;/h1&gt;&lt;div style=&quot;font-size: 28px&quot;&gt;&lt;font style=&quot;font-size: 28px&quot; color=&quot;#ff8000&quot;&gt;OnUnHoldResult&lt;/font&gt;&lt;/div&gt;&lt;/div&gt;&lt;/div&gt;" style="edgeLabel;html=1;align=center;verticalAlign=middle;resizable=0;points=[];fontSize=28;fontColor=#CC00CC;labelBackgroundColor=none;fontStyle=1;" parent="1" vertex="1" connectable="0">
          <mxGeometry x="20" y="2030" as="geometry">
            <mxPoint x="-12" y="2" as="offset" />
          </mxGeometry>
        </mxCell>
        <mxCell id="8vAzkIE3bh4ljM_OfiF3-62" value="&lt;div style=&quot;font-family: &amp;#34;consolas&amp;#34; , &amp;#34;courier new&amp;#34; , monospace ; line-height: 19px ; font-size: 28px&quot;&gt;&lt;div style=&quot;font-family: &amp;#34;consolas&amp;#34; , &amp;#34;courier new&amp;#34; , monospace ; line-height: 19px ; font-size: 28px&quot;&gt;&lt;h1 class=&quot;topictitle1&quot; style=&quot;font-size: 28px&quot;&gt;&lt;font color=&quot;#ff00ff&quot; style=&quot;font-size: 28px&quot;&gt;Hold&lt;/font&gt;&lt;/h1&gt;&lt;div style=&quot;font-size: 28px&quot;&gt;&lt;font style=&quot;font-size: 28px&quot; color=&quot;#ff8000&quot;&gt;OnHoldResult&lt;/font&gt;&lt;/div&gt;&lt;/div&gt;&lt;/div&gt;" style="edgeLabel;html=1;align=center;verticalAlign=middle;resizable=0;points=[];fontSize=28;fontColor=#CC00CC;labelBackgroundColor=none;fontStyle=1;" parent="1" vertex="1" connectable="0">
          <mxGeometry x="160" y="2540" as="geometry">
            <mxPoint x="-12" y="2" as="offset" />
          </mxGeometry>
        </mxCell>
        <mxCell id="8vAzkIE3bh4ljM_OfiF3-64" value="&lt;div style=&quot;font-family: &amp;#34;consolas&amp;#34; , &amp;#34;courier new&amp;#34; , monospace ; line-height: 19px&quot;&gt;&lt;font style=&quot;font-size: 28px&quot;&gt;CHANNEL_HANGUP_COMPLETE&lt;/font&gt;&lt;/div&gt;&lt;div style=&quot;font-family: &amp;#34;consolas&amp;#34; , &amp;#34;courier new&amp;#34; , monospace ; line-height: 19px&quot;&gt;&lt;font style=&quot;font-size: 28px&quot;&gt;&lt;br&gt;&lt;/font&gt;&lt;/div&gt;&lt;div style=&quot;font-family: &amp;#34;consolas&amp;#34; , &amp;#34;courier new&amp;#34; , monospace ; line-height: 19px&quot;&gt;&lt;font style=&quot;font-size: 28px&quot; color=&quot;#ff8000&quot;&gt;OnCdrEnent&lt;/font&gt;&lt;/div&gt;" style="edgeLabel;html=1;align=center;verticalAlign=middle;resizable=0;points=[];fontSize=28;fontColor=#000099;labelBackgroundColor=none;fontStyle=1" parent="1" vertex="1" connectable="0">
          <mxGeometry x="200" y="3070" as="geometry">
            <mxPoint x="249" y="88" as="offset" />
          </mxGeometry>
        </mxCell>
        <mxCell id="8vAzkIE3bh4ljM_OfiF3-65" value="&lt;div style=&quot;font-family: &amp;#34;consolas&amp;#34; , &amp;#34;courier new&amp;#34; , monospace ; line-height: 19px&quot;&gt;&lt;font style=&quot;font-size: 28px&quot;&gt;CHANNEL_CREATE&lt;/font&gt;&lt;/div&gt;&lt;div style=&quot;font-family: &amp;#34;consolas&amp;#34; , &amp;#34;courier new&amp;#34; , monospace ; line-height: 19px&quot;&gt;&lt;font style=&quot;font-size: 28px&quot;&gt;&lt;br&gt;&lt;/font&gt;&lt;/div&gt;&lt;div style=&quot;font-family: &amp;#34;consolas&amp;#34; , &amp;#34;courier new&amp;#34; , monospace ; line-height: 19px&quot;&gt;&lt;br&gt;&lt;/div&gt;" style="edgeLabel;html=1;align=center;verticalAlign=middle;resizable=0;points=[];fontSize=28;fontColor=#000099;labelBackgroundColor=none;fontStyle=1" parent="1" vertex="1" connectable="0">
          <mxGeometry x="564" y="800" as="geometry" />
        </mxCell>
        <mxCell id="8vAzkIE3bh4ljM_OfiF3-66" value="&lt;div style=&quot;font-family: &amp;#34;consolas&amp;#34; , &amp;#34;courier new&amp;#34; , monospace ; line-height: 19px&quot;&gt;&lt;font style=&quot;font-size: 28px&quot;&gt;CHANNEL_UNHOLD&lt;/font&gt;&lt;/div&gt;&lt;div style=&quot;font-family: &amp;#34;consolas&amp;#34; , &amp;#34;courier new&amp;#34; , monospace ; line-height: 19px&quot;&gt;&lt;font style=&quot;font-size: 28px&quot;&gt;&lt;br&gt;&lt;/font&gt;&lt;/div&gt;&lt;div style=&quot;font-family: &amp;#34;consolas&amp;#34; , &amp;#34;courier new&amp;#34; , monospace ; line-height: 19px&quot;&gt;&lt;font style=&quot;font-size: 28px&quot; color=&quot;#ff8000&quot;&gt;OnUnHoldEvent&lt;/font&gt;&lt;br&gt;&lt;/div&gt;" style="edgeLabel;html=1;align=center;verticalAlign=middle;resizable=0;points=[];fontSize=28;fontColor=#000099;labelBackgroundColor=none;fontStyle=1" parent="1" vertex="1" connectable="0">
          <mxGeometry x="190" y="2320" as="geometry" />
        </mxCell>
        <mxCell id="8vAzkIE3bh4ljM_OfiF3-67" value="&lt;div style=&quot;font-family: &amp;#34;consolas&amp;#34; , &amp;#34;courier new&amp;#34; , monospace ; line-height: 19px&quot;&gt;&lt;font style=&quot;font-size: 28px&quot;&gt;CHANNEL_HANGUP&lt;/font&gt;&lt;/div&gt;&lt;div style=&quot;font-family: &amp;#34;consolas&amp;#34; , &amp;#34;courier new&amp;#34; , monospace ; line-height: 19px&quot;&gt;&lt;font style=&quot;font-size: 28px&quot;&gt;&lt;br&gt;&lt;/font&gt;&lt;/div&gt;&lt;div style=&quot;font-family: &amp;#34;consolas&amp;#34; , &amp;#34;courier new&amp;#34; , monospace ; line-height: 19px&quot;&gt;&lt;font style=&quot;font-size: 28px&quot; color=&quot;#ff8000&quot;&gt;OnHangupEvent&lt;/font&gt;&lt;br&gt;&lt;/div&gt;" style="edgeLabel;html=1;align=center;verticalAlign=middle;resizable=0;points=[];fontSize=28;fontColor=#000099;labelBackgroundColor=none;fontStyle=1" parent="1" vertex="1" connectable="0">
          <mxGeometry x="530" y="2750" as="geometry">
            <mxPoint x="91" y="28" as="offset" />
          </mxGeometry>
        </mxCell>
        <mxCell id="8vAzkIE3bh4ljM_OfiF3-68" value="&lt;div style=&quot;font-family: &amp;#34;consolas&amp;#34; , &amp;#34;courier new&amp;#34; , monospace ; line-height: 19px&quot;&gt;&lt;font style=&quot;font-size: 28px&quot;&gt;CHANNEL_HANGUP&lt;/font&gt;&lt;/div&gt;&lt;div style=&quot;font-family: &amp;#34;consolas&amp;#34; , &amp;#34;courier new&amp;#34; , monospace ; line-height: 19px&quot;&gt;&lt;font style=&quot;font-size: 28px&quot;&gt;&lt;br&gt;&lt;/font&gt;&lt;/div&gt;&lt;div style=&quot;font-family: &amp;#34;consolas&amp;#34; , &amp;#34;courier new&amp;#34; , monospace ; line-height: 19px&quot;&gt;&lt;font style=&quot;font-size: 28px&quot; color=&quot;#ff8000&quot;&gt;OnHangupEvent&lt;/font&gt;&lt;br&gt;&lt;/div&gt;" style="edgeLabel;html=1;align=center;verticalAlign=middle;resizable=0;points=[];fontSize=28;fontColor=#000099;labelBackgroundColor=none;fontStyle=1" parent="1" vertex="1" connectable="0">
          <mxGeometry x="857" y="2570" as="geometry" />
        </mxCell>
        <mxCell id="SyPDCeyNVecFSC98UoBS-3" value="&lt;div style=&quot;font-family: &amp;#34;consolas&amp;#34; , &amp;#34;courier new&amp;#34; , monospace ; line-height: 19px ; font-size: 28px&quot;&gt;&lt;font style=&quot;font-size: 28px&quot;&gt;CHANNEL_PROGRESS&lt;/font&gt;&lt;/div&gt;&lt;div style=&quot;font-family: &amp;#34;consolas&amp;#34; , &amp;#34;courier new&amp;#34; , monospace ; line-height: 19px ; font-size: 28px&quot;&gt;&lt;font style=&quot;font-size: 28px&quot;&gt;&lt;br&gt;&lt;/font&gt;&lt;/div&gt;&lt;div style=&quot;font-family: &amp;#34;consolas&amp;#34; , &amp;#34;courier new&amp;#34; , monospace ; line-height: 19px ; font-size: 28px&quot;&gt;&lt;div style=&quot;font-family: &amp;#34;consolas&amp;#34; , &amp;#34;courier new&amp;#34; , monospace ; line-height: 19px&quot;&gt;&lt;font style=&quot;font-size: 28px&quot;&gt;CHANNEL_PROGRESS_MEDIA&lt;/font&gt;&lt;/div&gt;&lt;div style=&quot;font-family: &amp;#34;consolas&amp;#34; , &amp;#34;courier new&amp;#34; , monospace ; line-height: 19px&quot;&gt;&lt;font style=&quot;font-size: 28px&quot;&gt;&lt;br&gt;&lt;/font&gt;&lt;/div&gt;&lt;div style=&quot;font-family: &amp;#34;consolas&amp;#34; , &amp;#34;courier new&amp;#34; , monospace ; line-height: 19px&quot;&gt;&lt;font style=&quot;font-size: 28px&quot;&gt;&lt;br&gt;&lt;/font&gt;&lt;/div&gt;&lt;div style=&quot;font-family: &amp;#34;consolas&amp;#34; , &amp;#34;courier new&amp;#34; , monospace ; line-height: 19px&quot;&gt;&lt;font style=&quot;font-size: 28px&quot; color=&quot;#ff8000&quot;&gt;OnRingbackEvent&lt;/font&gt;&lt;/div&gt;&lt;/div&gt;" style="edgeLabel;html=1;align=center;verticalAlign=middle;resizable=0;points=[];fontSize=15;fontColor=#000099;labelBackgroundColor=none;fontStyle=1;" vertex="1" connectable="0" parent="1">
          <mxGeometry x="434.00000000000045" y="1880.001818181818" as="geometry" />
        </mxCell>
        <mxCell id="SyPDCeyNVecFSC98UoBS-14" value="&lt;font style=&quot;font-size: 28px&quot;&gt;DESTROY&lt;/font&gt;" style="ellipse;whiteSpace=wrap;html=1;fillColor=#60a917;strokeColor=#2D7600;fontColor=#ffffff;" vertex="1" parent="1">
          <mxGeometry x="315" y="3300" width="260" height="80" as="geometry" />
        </mxCell>
        <mxCell id="SyPDCeyNVecFSC98UoBS-22" style="edgeStyle=orthogonalEdgeStyle;curved=1;rounded=0;orthogonalLoop=1;jettySize=auto;html=1;fontFamily=Helvetica;fontSize=12;fontColor=default;entryX=0.5;entryY=0;entryDx=0;entryDy=0;" edge="1" parent="1" source="SyPDCeyNVecFSC98UoBS-18" target="SyPDCeyNVecFSC98UoBS-34">
          <mxGeometry relative="1" as="geometry" />
        </mxCell>
        <mxCell id="SyPDCeyNVecFSC98UoBS-18" value="&lt;span style=&quot;font-size: 28px&quot;&gt;NONE&lt;/span&gt;" style="ellipse;whiteSpace=wrap;html=1;fillColor=#60a917;strokeColor=#2D7600;fontColor=#ffffff;" vertex="1" parent="1">
          <mxGeometry x="283" y="430" width="260" height="80" as="geometry" />
        </mxCell>
        <mxCell id="SyPDCeyNVecFSC98UoBS-24" style="edgeStyle=orthogonalEdgeStyle;curved=1;rounded=0;orthogonalLoop=1;jettySize=auto;html=1;entryX=0.5;entryY=0;entryDx=0;entryDy=0;fontFamily=Helvetica;fontSize=12;fontColor=default;" edge="1" parent="1" source="SyPDCeyNVecFSC98UoBS-21" target="8vAzkIE3bh4ljM_OfiF3-36">
          <mxGeometry relative="1" as="geometry">
            <mxPoint x="580" y="1260" as="targetPoint" />
          </mxGeometry>
        </mxCell>
        <mxCell id="SyPDCeyNVecFSC98UoBS-21" value="&lt;font style=&quot;font-size: 28px&quot;&gt;CALLING&lt;/font&gt;" style="ellipse;whiteSpace=wrap;html=1;fillColor=#60a917;strokeColor=#2D7600;fontColor=#ffffff;" vertex="1" parent="1">
          <mxGeometry x="445" y="1169" width="260" height="80" as="geometry" />
        </mxCell>
        <mxCell id="SyPDCeyNVecFSC98UoBS-23" value="&lt;div style=&quot;font-family: &amp;#34;consolas&amp;#34; , &amp;#34;courier new&amp;#34; , monospace ; line-height: 19px&quot;&gt;&lt;div style=&quot;font-family: &amp;#34;consolas&amp;#34; , &amp;#34;courier new&amp;#34; , monospace ; line-height: 19px&quot;&gt;&lt;h1 class=&quot;topictitle1&quot;&gt;&lt;font color=&quot;#ff00ff&quot;&gt;&lt;span style=&quot;font-size: 28px&quot;&gt;Call&lt;/span&gt;&lt;/font&gt;&lt;/h1&gt;&lt;div style=&quot;font-size: 28px&quot;&gt;&lt;font style=&quot;font-size: 28px&quot; color=&quot;#ff8000&quot;&gt;OnCallResult&lt;/font&gt;&lt;/div&gt;&lt;/div&gt;&lt;/div&gt;" style="edgeLabel;html=1;align=center;verticalAlign=middle;resizable=0;points=[];fontSize=15;fontColor=#CC00CC;labelBackgroundColor=none;fontStyle=1;" vertex="1" connectable="0" parent="1">
          <mxGeometry x="445" y="690" as="geometry">
            <mxPoint x="16" y="-38" as="offset" />
          </mxGeometry>
        </mxCell>
        <mxCell id="SyPDCeyNVecFSC98UoBS-27" style="edgeStyle=orthogonalEdgeStyle;curved=1;rounded=0;orthogonalLoop=1;jettySize=auto;html=1;fontFamily=Helvetica;fontSize=12;fontColor=default;" edge="1" parent="1" source="SyPDCeyNVecFSC98UoBS-26" target="8vAzkIE3bh4ljM_OfiF3-36">
          <mxGeometry relative="1" as="geometry">
            <mxPoint x="280" y="1260" as="targetPoint" />
          </mxGeometry>
        </mxCell>
        <mxCell id="SyPDCeyNVecFSC98UoBS-26" value="&lt;font style=&quot;font-size: 28px&quot;&gt;CALLING&lt;/font&gt;" style="ellipse;whiteSpace=wrap;html=1;fillColor=#60a917;strokeColor=#2D7600;fontColor=#ffffff;" vertex="1" parent="1">
          <mxGeometry x="140" y="1170" width="260" height="80" as="geometry" />
        </mxCell>
        <mxCell id="SyPDCeyNVecFSC98UoBS-32" value="发起新的呼叫，会生成" style="text;html=1;strokeColor=none;fillColor=none;align=center;verticalAlign=middle;whiteSpace=wrap;rounded=0;fontFamily=Helvetica;fontSize=12;fontColor=default;" vertex="1" parent="1">
          <mxGeometry x="-60" y="1290" width="320" height="160" as="geometry" />
        </mxCell>
        <mxCell id="SyPDCeyNVecFSC98UoBS-34" value="&lt;font style=&quot;font-size: 28px&quot;&gt;CREATE&lt;/font&gt;" style="ellipse;whiteSpace=wrap;html=1;fillColor=#dae8fc;strokeColor=#6c8ebf;gradientColor=#7ea6e0;" vertex="1" parent="1">
          <mxGeometry x="480" y="910" width="260" height="80" as="geometry" />
        </mxCell>
      </root>
    </mxGraphModel>
  </diagram>
</mxfile>
